<?xml version="1.0" standalone="no"?>
<!DOCTYPE svg PUBLIC "-//W3C//DTD SVG 20010904//EN"
 "http://www.w3.org/TR/2001/REC-SVG-20010904/DTD/svg10.dtd">
<svg version="1.0" xmlns="http://www.w3.org/2000/svg"
 width="260.000000pt" height="260.000000pt" viewBox="0 0 260.000000 260.000000"
 preserveAspectRatio="xMidYMid meet">
<metadata>
Created by potrace 1.11, written by Peter Selinger 2001-2013
</metadata>
<g transform="translate(0.000000,260.000000) scale(0.100000,-0.100000)"
fill="#000000" stroke="none">
<path d="M879 2082 c-16 -3 -17 -51 -17 -555 0 -304 -3 -576 -7 -606 -24 -192
-140 -313 -313 -328 -152 -13 -279 54 -376 199 l-32 47 -51 -31 -51 -32 38
-55 c72 -107 173 -185 281 -216 175 -50 368 -11 478 97 57 56 87 105 119 192
l26 71 4 608 c3 579 2 607 -15 608 -10 0 -29 1 -43 2 -14 2 -32 1 -41 -1z"/>
<path d="M1202 2076 c-8 -13 -8 -1533 -1 -1554 6 -16 31 -18 315 -16 399 2
441 8 623 97 90 43 117 63 190 136 168 168 233 335 227 576 -5 157 -19 221
-79 340 -117 235 -366 395 -655 421 -115 10 -613 10 -620 0z m712 -127 c198
-48 355 -166 440 -329 58 -113 76 -184 80 -320 2 -66 -1 -93 -18 -185 -18 -93
-113 -252 -191 -320 -98 -86 -236 -150 -366 -171 -44 -7 -515 -13 -534 -7 -7
2 -10 234 -9 676 1 369 2 673 3 675 0 1 117 2 259 1 215 -1 270 -4 336 -20z"/>
</g>
</svg>
